<svg width="48" height="48" viewBox="0 0 48 48" fill="none" xmlns="http://www.w3.org/2000/svg">
<mask id="mask0_48_579" style="mask-type:alpha" maskUnits="userSpaceOnUse" x="0" y="0" width="48" height="48">
<circle cx="24" cy="24" r="24" fill="white"/>
</mask>
<g mask="url(#mask0_48_579)">
<circle cx="24" cy="24" r="24" fill="white"/>
<path d="M24.1183 31.7217C28.4211 31.7217 31.9092 28.2336 31.9092 23.9308C31.9092 19.628 28.4211 16.1399 24.1183 16.1399C19.8155 16.1399 16.3274 19.628 16.3274 23.9308C16.3274 28.2336 19.8155 31.7217 24.1183 31.7217Z" fill="#C08790" fill-opacity="0.94"/>
<path d="M17.6697 33.4662L19.2937 29.3158L27.6847 28.0527L28.5863 37.2401L20.1051 37.4205L17.6697 33.4662Z" fill="#C08790" fill-opacity="0.94"/>
<path d="M31.9846 25.3682C31.8835 25.7733 31.6791 26.7378 31.3599 26.7426C31.0991 26.7464 30.8495 22.562 31.11 21.8699C31.4093 21.0747 30.6229 20.0689 30.0306 19.5526C28.9655 18.6242 26.6014 20.6177 24.1974 19.7146C24.1336 19.6907 24.1463 19.6934 23.3872 19.3905C21.0513 18.4585 20.9285 18.4316 20.7947 18.4183C19.6623 18.3063 18.2804 19.2329 17.716 20.3627C17.1294 21.5372 17.6196 22.5445 17.0679 25.3858C17.0036 25.717 16.9027 26.189 16.7438 26.1959C16.4535 26.2086 16.17 24.6577 16.0957 24.2515C15.7846 22.5497 15.4847 20.909 16.0957 19.0665C16.1624 18.8655 16.5732 18.1196 17.392 16.636C18.5716 14.4987 19.1649 13.426 19.3364 13.2333C20.566 11.8505 22.8043 10.589 24.6835 11.1269C25.6333 11.3987 25.463 11.8358 26.6279 12.2611C28.7038 13.019 30.508 12.0921 30.8407 12.7472C31.017 13.0942 30.5238 13.3803 30.5167 14.0435C30.5044 15.1813 31.9435 15.5101 32.7851 16.636C33.2376 17.2412 34.012 17.2477 31.9846 25.3682L31.9846 25.3682V25.3682Z" fill="#092932"/>
<path d="M41.6367 40.323C41.3227 40.6758 40.997 41.0214 40.6596 41.3589C36.1266 45.8917 30.0996 48.3883 23.689 48.3883C18.1483 48.3883 12.8944 46.5233 8.64391 43.0902C8.6412 43.0885 8.63939 43.0866 8.6367 43.0839C8.07279 42.6292 7.52693 42.1456 7 41.6349C7.00991 41.5555 7.02075 41.477 7.03247 41.3994C7.10646 40.8761 7.18858 40.3771 7.28059 39.9179C8.03398 36.1537 17.9471 32.2018 18.2051 32.0989C18.2087 32.098 18.2105 32.0972 18.2105 32.0972C18.2105 32.0972 19.4863 36.7997 24.9531 36.7393C28.6767 36.6987 27.9549 32.0972 27.9549 32.0972C27.9549 32.0972 28 32.1062 28.0848 32.1242C29.1603 32.3525 36.6274 33.9928 39.5732 36.2313C40.471 36.9134 41.1152 38.3661 41.578 40.0983C41.5979 40.1724 41.6168 40.2481 41.6367 40.323Z" fill="#0E5E7B"/>
</g>
</svg>
