<svg width="48" height="48" viewBox="0 0 48 48" fill="none" xmlns="http://www.w3.org/2000/svg">
<mask id="mask0_48_577" style="mask-type:alpha" maskUnits="userSpaceOnUse" x="0" y="0" width="48" height="48">
<circle cx="24" cy="24" r="24" fill="white"/>
</mask>
<g mask="url(#mask0_48_577)">
<circle cx="24" cy="24" r="24" fill="white"/>
<path d="M27.922 33.8254L29.1742 25.9992L20.7219 22.5557L19.4697 34.4515L27.922 33.8254Z" fill="#C08790" fill-opacity="0.94"/>
<path d="M36.4171 45.3914C35.6914 45.7452 34.9519 46.0646 34.2014 46.3479C32.7002 46.916 31.1507 47.3445 29.5611 47.6307C28.0074 47.9112 26.4123 48.0536 24.8171 48.0536C22.6622 48.0536 20.5197 47.7951 18.4476 47.2837C17.6363 47.0847 16.818 46.8415 16.0135 46.558C15.9292 46.5276 15.8435 46.4972 15.7592 46.4667C14.7612 46.1047 13.7797 45.6803 12.8357 45.2007C12.7085 45.1371 12.5813 45.072 12.4542 45.0029C12.3132 44.9311 12.1736 44.8551 12.0326 44.7763C11.8529 44.6782 11.6746 44.5758 11.4962 44.4722C10.8991 44.1266 10.3117 43.7534 9.75045 43.365L9.71313 43.3402C9.67995 43.3167 9.64678 43.2945 9.61499 43.2711C9.63571 43.1618 9.65508 43.0622 9.67304 42.9738C9.74215 42.6269 9.78777 42.4362 9.78777 42.4362L13.5724 34.618L14.6271 32.4396L15.1413 32.228L19.0255 30.6316H28.5188L31.5142 31.8701C31.5142 31.8701 31.5294 31.9268 31.5598 32.036C31.8584 33.1072 33.6001 39.1892 36.3024 45.1398C36.3397 45.2227 36.3784 45.3071 36.4171 45.3914L36.4171 45.3914Z" fill="#0E5E7B"/>
<path d="M25.7861 28.515C30.5464 28.515 34.4054 24.656 34.4054 19.8957C34.4054 15.1354 30.5464 11.2764 25.7861 11.2764C21.0258 11.2764 17.1667 15.1354 17.1667 19.8957C17.1667 24.656 21.0258 28.515 25.7861 28.515Z" fill="#C08790" fill-opacity="0.94"/>
<path d="M15.1563 32.1538L15.1415 32.228L12.5136 44.7223L12.4909 44.8311L12.4543 45.0032C12.3128 44.931 12.1734 44.8549 12.033 44.7768C11.853 44.6778 11.6749 44.576 11.4959 44.4721C10.8995 44.127 10.312 43.7531 9.75028 43.3654L9.7127 43.3397C9.68006 43.317 9.64644 43.2942 9.61479 43.2715C9.18555 42.9718 8.76719 42.6592 8.35873 42.3368C8.35576 42.3349 8.35378 42.3329 8.35081 42.3299C7.6219 41.7424 6.9197 41.1104 6.24815 40.4389C5.81496 40.0057 5.39858 39.5597 5 39.1017L5.06034 38.8485L5.06627 38.8228L5.14143 38.5004C5.81001 35.6767 8.07191 33.5098 10.9213 32.9638L14.7073 32.2389L15.1563 32.1538H15.1563Z" fill="#0E5E7B"/>
<path d="M42.0001 41.738C40.8846 42.6876 39.6889 43.5475 38.4269 44.3022C38.3039 44.3769 38.1781 44.45 38.0523 44.5233C37.516 44.833 36.97 45.1219 36.4171 45.3914C35.6914 45.7452 34.9519 46.0646 34.2013 46.3479L34.1433 46.0742L31.1755 31.9627L31.5598 32.036L35.4108 32.7741C38.2596 33.3201 40.5224 35.4875 41.19 38.3114L41.9268 41.4312L42.0001 41.738H42.0001Z" fill="#0E5E7B"/>
<path d="M35.7121 22.1998C35.4881 23.0347 34.3616 26.7654 31.4768 27.5505C30.9101 27.7053 29.5582 27.8836 29.9163 27.5505C29.9978 27.4745 30.0766 27.3999 30.1554 27.3266C33.2862 24.3824 34.5634 22.5827 33.9801 18.5879C33.6096 16.0445 29.391 13.7347 27.0176 13.5053C26.0169 13.4086 24.7396 13.7472 23.8965 14.6194C22.5045 16.0569 22.734 20.4692 21.9627 23.061C21.7554 23.7548 21.4775 24.3188 21.078 24.6602C20.8292 24.873 20.6703 24.6021 20.5528 24.1584C20.3026 23.2157 20.2376 21.4893 19.8824 21.9772C18.8554 23.3913 19.834 25.2656 20.1298 25.9886C20.1906 26.1365 20.2528 26.2788 20.315 26.4143V26.4157C20.351 26.493 20.3883 26.5705 20.4242 26.6438V26.6451C21.4111 28.6577 22.5971 29.3778 23.6421 30.6316C24.0527 31.1223 24.4411 31.6931 24.788 32.4562C25.0258 32.9787 25.1972 33.504 25.3147 34.0195C25.9132 36.6043 25.2027 38.9528 25.0106 39.5915C24.6083 40.9212 23.9172 43.206 21.8894 44.4957C19.3433 46.1158 17.0197 44.6879 15.9084 46.2263C15.8945 46.2443 15.8821 46.2622 15.8697 46.2802C15.8282 46.3424 15.7909 46.4046 15.7591 46.4667C14.7611 46.1047 13.7797 45.6803 12.8356 45.2007C12.7084 45.1371 12.5812 45.0721 12.4541 45.0029C12.3131 44.9311 12.1735 44.8551 12.0325 44.7763C12.027 44.6684 12.0214 44.5607 12.0173 44.4515C11.9357 42.5813 12.0587 40.5258 12.5246 38.4759C12.8231 37.167 13.119 35.8689 13.5723 34.618C13.8681 33.8025 14.2303 33.0063 14.7072 32.2391C15.0887 31.6226 15.542 31.0241 16.0922 30.4491C17.3003 29.1871 18.3743 28.6605 18.5444 27.3279C18.7876 25.4259 16.8068 24.8537 16.0922 21.9772C15.6043 20.0103 15.0942 17.1753 15.5891 15.2649C16.0563 13.4598 16.4627 11.8936 17.8187 10.3592C18.1449 9.99154 20.8223 7.43435 23.9241 7.01414C25.3534 6.82205 26.6278 8.65221 28.3557 9.0461C30.342 9.49817 31.4796 9.75667 32.5909 10.6067C34.4694 12.0415 34.9988 14.1868 35.4895 16.18C35.8738 17.7392 36.3714 19.7559 35.7121 22.1997L35.7121 22.1998H35.7121Z" fill="#092932"/>
</g>
</svg>
