<svg width="60" height="66" viewBox="0 0 60 66" fill="none" xmlns="http://www.w3.org/2000/svg">
<path fill-rule="evenodd" clip-rule="evenodd" d="M59.0237 1.45653C58.3986 0.846659 57.5507 0.504028 56.6667 0.504028H10C9.1159 0.504028 8.2681 0.846659 7.643 1.45653C7.0179 2.06641 6.6667 2.89357 6.6667 3.75607V10.2601H0V16.7642H6.6667V23.2683H0V29.7723H6.6667V36.2764H0V42.7805H6.6667V49.2845H0V55.7886H6.6667V62.2927C6.6667 63.1552 7.0179 63.9823 7.643 64.5922C8.2681 65.2021 9.1159 65.5447 10 65.5447H56.6667C57.5507 65.5447 58.3986 65.2021 59.0237 64.5922C59.6488 63.9823 60 63.1552 60 62.2927V3.75607C60 2.89357 59.6488 2.06641 59.0237 1.45653ZM26.8308 31.8872V42.5122H28.6796V35.9247L27.0221 31.8872H26.8308ZM26.8308 27.6372V28.806L32.5258 42.5122H33.9283L36.9246 35.7122V31.5897H36.7121L33.2271 39.4735L28.3396 27.6372H26.8308ZM37.9871 27.6372V42.5122H39.8358V27.6372H37.9871Z" fill="#329BE2"/>
</svg>
