<svg width="193" height="79" viewBox="0 0 193 79" fill="none" xmlns="http://www.w3.org/2000/svg">
<path fill-rule="evenodd" clip-rule="evenodd" d="M69.0237 7.45653C68.3986 6.84666 67.5507 6.50403 66.6667 6.50403H20C19.1159 6.50403 18.2681 6.84666 17.643 7.45653C17.0179 8.06641 16.6667 8.89357 16.6667 9.75607V16.2601H10V22.7642H16.6667V29.2683H10V35.7723H16.6667V42.2764H10V48.7805H16.6667V55.2845H10V61.7886H16.6667V68.2927C16.6667 69.1552 17.0179 69.9823 17.643 70.5922C18.2681 71.2021 19.1159 71.5447 20 71.5447H66.6667C67.5507 71.5447 68.3986 71.2021 69.0237 70.5922C69.6488 69.9823 70 69.1552 70 68.2927V9.75607C70 8.89357 69.6488 8.06641 69.0237 7.45653ZM36.8308 37.8872V48.5122H38.6796V41.9247L37.0221 37.8872H36.8308ZM36.8308 33.6372V34.806L42.5258 48.5122H43.9283L46.9246 41.7122V37.5897H46.7121L43.2271 45.4735L38.3396 33.6372H36.8308ZM47.9871 33.6372V48.5122H49.8358V33.6372H47.9871Z" fill="#329BE2"/>
<path d="M98.032 14.1084V30.0244H95.939V18.1564L90.649 30.0244H89.177L83.864 18.1334V30.0244H81.771V14.1084H84.025L89.913 27.2644L95.801 14.1084H98.032ZM112.438 17.4204L104.848 35.9584H102.686L105.17 29.8864L100.087 17.4204H102.41L106.366 27.6324L110.276 17.4204H112.438Z" fill="#4B4B4B"/>
<path d="M98.032 49.1084V65.0244H95.939V53.1564L90.649 65.0244H89.177L83.864 53.1334V65.0244H81.771V49.1084H84.025L89.913 62.2644L95.801 49.1084H98.032ZM113.082 58.2394C113.082 58.638 113.059 59.0597 113.013 59.5044H102.939C103.015 60.7464 103.437 61.7201 104.204 62.4254C104.986 63.1154 105.929 63.4604 107.033 63.4604C107.937 63.4604 108.689 63.2534 109.287 62.8394C109.9 62.4101 110.329 61.8427 110.575 61.1374H112.829C112.491 62.3487 111.817 63.3377 110.805 64.1044C109.793 64.8557 108.535 65.2314 107.033 65.2314C105.837 65.2314 104.763 64.9631 103.813 64.4264C102.877 63.8897 102.141 63.1307 101.605 62.1494C101.068 61.1527 100.8 60.0027 100.8 58.6994C100.8 57.396 101.06 56.2537 101.582 55.2724C102.103 54.291 102.831 53.5397 103.767 53.0184C104.717 52.4817 105.806 52.2134 107.033 52.2134C108.229 52.2134 109.287 52.474 110.207 52.9954C111.127 53.5167 111.832 54.2374 112.323 55.1574C112.829 56.062 113.082 57.0894 113.082 58.2394ZM110.92 57.8024C110.92 57.005 110.743 56.3227 110.391 55.7554C110.038 55.1727 109.555 54.7357 108.942 54.4444C108.344 54.1377 107.677 53.9844 106.941 53.9844C105.883 53.9844 104.978 54.3217 104.227 54.9964C103.491 55.671 103.069 56.6064 102.962 57.8024H110.92ZM115.062 58.6764C115.062 57.3884 115.323 56.2614 115.844 55.2954C116.366 54.314 117.079 53.555 117.983 53.0184C118.903 52.4817 119.931 52.2134 121.065 52.2134C122.047 52.2134 122.959 52.4434 123.802 52.9034C124.646 53.348 125.29 53.9384 125.734 54.6744V48.0044H127.85V65.0244H125.734V62.6554C125.32 63.4067 124.707 64.0277 123.894 64.5184C123.082 64.9937 122.131 65.2314 121.042 65.2314C119.923 65.2314 118.903 64.9554 117.983 64.4034C117.079 63.8514 116.366 63.0771 115.844 62.0804C115.323 61.0837 115.062 59.949 115.062 58.6764ZM125.734 58.6994C125.734 57.7487 125.543 56.9207 125.159 56.2154C124.776 55.51 124.255 54.9734 123.595 54.6054C122.951 54.222 122.238 54.0304 121.456 54.0304C120.674 54.0304 119.961 54.2144 119.317 54.5824C118.673 54.9504 118.16 55.4871 117.776 56.1924C117.393 56.8977 117.201 57.7257 117.201 58.6764C117.201 59.6424 117.393 60.4857 117.776 61.2064C118.16 61.9117 118.673 62.4561 119.317 62.8394C119.961 63.2074 120.674 63.3914 121.456 63.3914C122.238 63.3914 122.951 63.2074 123.595 62.8394C124.255 62.4561 124.776 61.9117 125.159 61.2064C125.543 60.4857 125.734 59.65 125.734 58.6994ZM130.605 58.6994C130.605 57.396 130.866 56.2614 131.387 55.2954C131.909 54.314 132.629 53.555 133.549 53.0184C134.485 52.4817 135.55 52.2134 136.746 52.2134C138.295 52.2134 139.568 52.589 140.564 53.3404C141.576 54.0917 142.243 55.1344 142.565 56.4684H140.311C140.097 55.7017 139.675 55.096 139.046 54.6514C138.433 54.2067 137.666 53.9844 136.746 53.9844C135.55 53.9844 134.584 54.3984 133.848 55.2264C133.112 56.039 132.744 57.1967 132.744 58.6994C132.744 60.2174 133.112 61.3904 133.848 62.2184C134.584 63.0464 135.55 63.4604 136.746 63.4604C137.666 63.4604 138.433 63.2457 139.046 62.8164C139.66 62.3871 140.081 61.7737 140.311 60.9764H142.565C142.228 62.2644 141.553 63.2994 140.541 64.0814C139.529 64.8481 138.264 65.2314 136.746 65.2314C135.55 65.2314 134.485 64.9631 133.549 64.4264C132.629 63.8897 131.909 63.1307 131.387 62.1494C130.866 61.1681 130.605 60.0181 130.605 58.6994ZM150.855 65.2314C149.674 65.2314 148.601 64.9631 147.635 64.4264C146.684 63.8897 145.933 63.1307 145.381 62.1494C144.844 61.1527 144.576 60.0027 144.576 58.6994C144.576 57.4114 144.852 56.2767 145.404 55.2954C145.971 54.2987 146.738 53.5397 147.704 53.0184C148.67 52.4817 149.751 52.2134 150.947 52.2134C152.143 52.2134 153.224 52.4817 154.19 53.0184C155.156 53.5397 155.915 54.291 156.467 55.2724C157.034 56.2537 157.318 57.396 157.318 58.6994C157.318 60.0027 157.027 61.1527 156.444 62.1494C155.877 63.1307 155.102 63.8897 154.121 64.4264C153.14 64.9631 152.051 65.2314 150.855 65.2314ZM150.855 63.3914C151.606 63.3914 152.312 63.2151 152.971 62.8624C153.63 62.5097 154.159 61.9807 154.558 61.2754C154.972 60.5701 155.179 59.7114 155.179 58.6994C155.179 57.6874 154.98 56.8287 154.581 56.1234C154.182 55.418 153.661 54.8967 153.017 54.5594C152.373 54.2067 151.675 54.0304 150.924 54.0304C150.157 54.0304 149.452 54.2067 148.808 54.5594C148.179 54.8967 147.673 55.418 147.29 56.1234C146.907 56.8287 146.715 57.6874 146.715 58.6994C146.715 59.7267 146.899 60.5931 147.267 61.2984C147.65 62.0037 148.156 62.5327 148.785 62.8854C149.414 63.2227 150.104 63.3914 150.855 63.3914ZM162.163 54.4674C162.531 53.7467 163.052 53.187 163.727 52.7884C164.417 52.3897 165.252 52.1904 166.234 52.1904V54.3524H165.682C163.336 54.3524 162.163 55.625 162.163 58.1704V65.0244H160.07V52.4204H162.163V54.4674ZM167.868 58.6764C167.868 57.3884 168.129 56.2614 168.65 55.2954C169.171 54.314 169.884 53.555 170.789 53.0184C171.709 52.4817 172.736 52.2134 173.871 52.2134C174.852 52.2134 175.765 52.4434 176.608 52.9034C177.451 53.348 178.095 53.9384 178.54 54.6744V48.0044H180.656V65.0244H178.54V62.6554C178.126 63.4067 177.513 64.0277 176.7 64.5184C175.887 64.9937 174.937 65.2314 173.848 65.2314C172.729 65.2314 171.709 64.9554 170.789 64.4034C169.884 63.8514 169.171 63.0771 168.65 62.0804C168.129 61.0837 167.868 59.949 167.868 58.6764ZM178.54 58.6994C178.54 57.7487 178.348 56.9207 177.965 56.2154C177.582 55.51 177.06 54.9734 176.401 54.6054C175.757 54.222 175.044 54.0304 174.262 54.0304C173.48 54.0304 172.767 54.2144 172.123 54.5824C171.479 54.9504 170.965 55.4871 170.582 56.1924C170.199 56.8977 170.007 57.7257 170.007 58.6764C170.007 59.6424 170.199 60.4857 170.582 61.2064C170.965 61.9117 171.479 62.4561 172.123 62.8394C172.767 63.2074 173.48 63.3914 174.262 63.3914C175.044 63.3914 175.757 63.2074 176.401 62.8394C177.06 62.4561 177.582 61.9117 177.965 61.2064C178.348 60.4857 178.54 59.65 178.54 58.6994Z" fill="#4B4B4B"/>
</svg>
